<mxfile host="app.diagrams.net" modified="2023-12-20T23:28:49.098Z" agent="Mozilla/5.0 (Windows NT 10.0; Win64; x64; rv:120.0) Gecko/20100101 Firefox/120.0" etag="bpA0qd2JxD1OQFAfI6O0" version="22.1.11" type="github">
  <diagram id="C5RBs43oDa-KdzZeNtuy" name="Page-1">
    <mxGraphModel dx="2885" dy="2765" grid="1" gridSize="10" guides="1" tooltips="1" connect="1" arrows="1" fold="1" page="1" pageScale="1" pageWidth="827" pageHeight="1169" math="0" shadow="0">
      <root>
        <mxCell id="WIyWlLk6GJQsqaUBKTNV-0" />
        <mxCell id="WIyWlLk6GJQsqaUBKTNV-1" parent="WIyWlLk6GJQsqaUBKTNV-0" />
        <mxCell id="XttCEDQT1znHBO9M0BVo-0" value="Server UI&lt;br&gt;&lt;div&gt;Functions&lt;/div&gt;" style="rounded=1;whiteSpace=wrap;html=1;" vertex="1" parent="WIyWlLk6GJQsqaUBKTNV-1">
          <mxGeometry x="10" y="60" width="60" height="2070" as="geometry" />
        </mxCell>
        <mxCell id="XttCEDQT1znHBO9M0BVo-4" value="Main" style="rounded=1;whiteSpace=wrap;html=1;" vertex="1" parent="WIyWlLk6GJQsqaUBKTNV-1">
          <mxGeometry x="90" y="60" width="60" height="2070" as="geometry" />
        </mxCell>
        <mxCell id="XttCEDQT1znHBO9M0BVo-5" value="Settings" style="rounded=1;whiteSpace=wrap;html=1;" vertex="1" parent="WIyWlLk6GJQsqaUBKTNV-1">
          <mxGeometry x="310" y="620" width="60" height="430" as="geometry" />
        </mxCell>
        <mxCell id="XttCEDQT1znHBO9M0BVo-6" value="Client" style="rounded=1;whiteSpace=wrap;html=1;" vertex="1" parent="WIyWlLk6GJQsqaUBKTNV-1">
          <mxGeometry x="300" y="1400" width="60" height="420" as="geometry" />
        </mxCell>
        <mxCell id="XttCEDQT1znHBO9M0BVo-7" value="Calibrate" style="shape=hexagon;perimeter=hexagonPerimeter2;whiteSpace=wrap;html=1;fixedSize=1;fillColor=#cce5ff;strokeColor=#36393d;" vertex="1" parent="WIyWlLk6GJQsqaUBKTNV-1">
          <mxGeometry x="170" y="70" width="120" height="50" as="geometry" />
        </mxCell>
        <mxCell id="XttCEDQT1znHBO9M0BVo-8" value="Refine Calibration" style="shape=hexagon;perimeter=hexagonPerimeter2;whiteSpace=wrap;html=1;fixedSize=1;fillColor=#cce5ff;strokeColor=#36393d;" vertex="1" parent="WIyWlLk6GJQsqaUBKTNV-1">
          <mxGeometry x="170" y="130" width="120" height="50" as="geometry" />
        </mxCell>
        <mxCell id="XttCEDQT1znHBO9M0BVo-9" value="Sync" style="shape=hexagon;perimeter=hexagonPerimeter2;whiteSpace=wrap;html=1;fixedSize=1;fillColor=#ffcccc;strokeColor=#36393d;" vertex="1" parent="WIyWlLk6GJQsqaUBKTNV-1">
          <mxGeometry x="170" y="190" width="120" height="50" as="geometry" />
        </mxCell>
        <mxCell id="XttCEDQT1znHBO9M0BVo-11" value="Exposure" style="shape=hexagon;perimeter=hexagonPerimeter2;whiteSpace=wrap;html=1;fixedSize=1;fillColor=#ffcccc;strokeColor=#36393d;" vertex="1" parent="WIyWlLk6GJQsqaUBKTNV-1">
          <mxGeometry x="170" y="250" width="120" height="50" as="geometry" />
        </mxCell>
        <mxCell id="XttCEDQT1znHBO9M0BVo-12" value="White Balance" style="shape=hexagon;perimeter=hexagonPerimeter2;whiteSpace=wrap;html=1;fixedSize=1;fillColor=#ffcccc;strokeColor=#36393d;" vertex="1" parent="WIyWlLk6GJQsqaUBKTNV-1">
          <mxGeometry x="170" y="310" width="120" height="50" as="geometry" />
        </mxCell>
        <mxCell id="XttCEDQT1znHBO9M0BVo-13" value="Client Preview" style="shape=hexagon;perimeter=hexagonPerimeter2;whiteSpace=wrap;html=1;fixedSize=1;fillColor=#ffcccc;strokeColor=#36393d;" vertex="1" parent="WIyWlLk6GJQsqaUBKTNV-1">
          <mxGeometry x="170" y="370" width="120" height="50" as="geometry" />
        </mxCell>
        <mxCell id="XttCEDQT1znHBO9M0BVo-14" value="Settings" style="shape=hexagon;perimeter=hexagonPerimeter2;whiteSpace=wrap;html=1;fixedSize=1;fillColor=#cce5ff;strokeColor=#36393d;" vertex="1" parent="WIyWlLk6GJQsqaUBKTNV-1">
          <mxGeometry x="170" y="620" width="120" height="50" as="geometry" />
        </mxCell>
        <mxCell id="XttCEDQT1znHBO9M0BVo-15" value="Sequence Name" style="shape=hexagon;perimeter=hexagonPerimeter2;whiteSpace=wrap;html=1;fixedSize=1;fillColor=#cdeb8b;strokeColor=#36393d;" vertex="1" parent="WIyWlLk6GJQsqaUBKTNV-1">
          <mxGeometry x="170" y="430" width="120" height="50" as="geometry" />
        </mxCell>
        <mxCell id="XttCEDQT1znHBO9M0BVo-16" value="Capture Mode" style="shape=hexagon;perimeter=hexagonPerimeter2;whiteSpace=wrap;html=1;fixedSize=1;fillColor=#ffcccc;strokeColor=#36393d;" vertex="1" parent="WIyWlLk6GJQsqaUBKTNV-1">
          <mxGeometry x="170" y="490" width="120" height="50" as="geometry" />
        </mxCell>
        <mxCell id="XttCEDQT1znHBO9M0BVo-17" value="&lt;div&gt;Merge Scans&lt;/div&gt;" style="shape=hexagon;perimeter=hexagonPerimeter2;whiteSpace=wrap;html=1;fixedSize=1;fillColor=#ffcccc;strokeColor=#36393d;" vertex="1" parent="WIyWlLk6GJQsqaUBKTNV-1">
          <mxGeometry x="170" y="550" width="120" height="50" as="geometry" />
        </mxCell>
        <mxCell id="XttCEDQT1znHBO9M0BVo-20" value="Bounding Box" style="shape=hexagon;perimeter=hexagonPerimeter2;whiteSpace=wrap;html=1;fixedSize=1;fillColor=#cdeb8b;strokeColor=#36393d;" vertex="1" parent="WIyWlLk6GJQsqaUBKTNV-1">
          <mxGeometry x="380" y="620" width="120" height="50" as="geometry" />
        </mxCell>
        <mxCell id="XttCEDQT1znHBO9M0BVo-21" value="PLY File Format" style="shape=hexagon;perimeter=hexagonPerimeter2;whiteSpace=wrap;html=1;fixedSize=1;fillColor=#ffcccc;strokeColor=#36393d;" vertex="1" parent="WIyWlLk6GJQsqaUBKTNV-1">
          <mxGeometry x="380" y="740" width="120" height="50" as="geometry" />
        </mxCell>
        <mxCell id="XttCEDQT1znHBO9M0BVo-22" value="Extrinsics" style="shape=hexagon;perimeter=hexagonPerimeter2;whiteSpace=wrap;html=1;fixedSize=1;fillColor=#ffcccc;strokeColor=#36393d;" vertex="1" parent="WIyWlLk6GJQsqaUBKTNV-1">
          <mxGeometry x="380" y="680" width="120" height="50" as="geometry" />
        </mxCell>
        <mxCell id="XttCEDQT1znHBO9M0BVo-24" value="Compression Level" style="shape=hexagon;perimeter=hexagonPerimeter2;whiteSpace=wrap;html=1;fixedSize=1;fillColor=#ffcccc;strokeColor=#36393d;" vertex="1" parent="WIyWlLk6GJQsqaUBKTNV-1">
          <mxGeometry x="380" y="800" width="120" height="50" as="geometry" />
        </mxCell>
        <mxCell id="XttCEDQT1znHBO9M0BVo-25" value="Marker Pose" style="shape=hexagon;perimeter=hexagonPerimeter2;whiteSpace=wrap;html=1;fixedSize=1;fillColor=#cce5ff;strokeColor=#36393d;" vertex="1" parent="WIyWlLk6GJQsqaUBKTNV-1">
          <mxGeometry x="380" y="980" width="120" height="50" as="geometry" />
        </mxCell>
        <mxCell id="XttCEDQT1znHBO9M0BVo-26" value="Marker Pose" style="rounded=1;whiteSpace=wrap;html=1;" vertex="1" parent="WIyWlLk6GJQsqaUBKTNV-1">
          <mxGeometry x="510" y="980" width="60" height="300" as="geometry" />
        </mxCell>
        <mxCell id="XttCEDQT1znHBO9M0BVo-27" value="&lt;div&gt;Translation&lt;/div&gt;" style="shape=hexagon;perimeter=hexagonPerimeter2;whiteSpace=wrap;html=1;fixedSize=1;fillColor=#cdeb8b;strokeColor=#36393d;" vertex="1" parent="WIyWlLk6GJQsqaUBKTNV-1">
          <mxGeometry x="580" y="1040" width="120" height="50" as="geometry" />
        </mxCell>
        <mxCell id="XttCEDQT1znHBO9M0BVo-28" value="Rotation" style="shape=hexagon;perimeter=hexagonPerimeter2;whiteSpace=wrap;html=1;fixedSize=1;fillColor=#cdeb8b;strokeColor=#36393d;" vertex="1" parent="WIyWlLk6GJQsqaUBKTNV-1">
          <mxGeometry x="580" y="980" width="120" height="50" as="geometry" />
        </mxCell>
        <mxCell id="XttCEDQT1znHBO9M0BVo-29" value="&lt;div&gt;ID&lt;/div&gt;" style="shape=hexagon;perimeter=hexagonPerimeter2;whiteSpace=wrap;html=1;fixedSize=1;fillColor=#ffcccc;strokeColor=#36393d;" vertex="1" parent="WIyWlLk6GJQsqaUBKTNV-1">
          <mxGeometry x="580" y="1100" width="120" height="50" as="geometry" />
        </mxCell>
        <mxCell id="XttCEDQT1znHBO9M0BVo-30" value="Save Pose" style="shape=hexagon;perimeter=hexagonPerimeter2;whiteSpace=wrap;html=1;fixedSize=1;fillColor=#cce5ff;strokeColor=#36393d;" vertex="1" parent="WIyWlLk6GJQsqaUBKTNV-1">
          <mxGeometry x="580" y="1160" width="120" height="50" as="geometry" />
        </mxCell>
        <mxCell id="XttCEDQT1znHBO9M0BVo-31" value="Load Pose" style="shape=hexagon;perimeter=hexagonPerimeter2;whiteSpace=wrap;html=1;fixedSize=1;fillColor=#cce5ff;strokeColor=#36393d;" vertex="1" parent="WIyWlLk6GJQsqaUBKTNV-1">
          <mxGeometry x="580" y="1220" width="120" height="50" as="geometry" />
        </mxCell>
        <mxCell id="XttCEDQT1znHBO9M0BVo-32" value="Refinement Iters" style="shape=hexagon;perimeter=hexagonPerimeter2;whiteSpace=wrap;html=1;fixedSize=1;fillColor=#ffcccc;strokeColor=#36393d;" vertex="1" parent="WIyWlLk6GJQsqaUBKTNV-1">
          <mxGeometry x="380" y="920" width="120" height="50" as="geometry" />
        </mxCell>
        <mxCell id="XttCEDQT1znHBO9M0BVo-33" value="ICP Iters" style="shape=hexagon;perimeter=hexagonPerimeter2;whiteSpace=wrap;html=1;fixedSize=1;fillColor=#ffcccc;strokeColor=#36393d;" vertex="1" parent="WIyWlLk6GJQsqaUBKTNV-1">
          <mxGeometry x="380" y="860" width="120" height="50" as="geometry" />
        </mxCell>
        <mxCell id="XttCEDQT1znHBO9M0BVo-34" value="Clients" style="shape=hexagon;perimeter=hexagonPerimeter2;whiteSpace=wrap;html=1;fixedSize=1;fillColor=#cce5ff;strokeColor=#36393d;" vertex="1" parent="WIyWlLk6GJQsqaUBKTNV-1">
          <mxGeometry x="160" y="1400" width="120" height="50" as="geometry" />
        </mxCell>
        <mxCell id="XttCEDQT1znHBO9M0BVo-36" value="ID" style="shape=hexagon;perimeter=hexagonPerimeter2;whiteSpace=wrap;html=1;fixedSize=1;fillColor=#ffcc99;strokeColor=#36393d;" vertex="1" parent="WIyWlLk6GJQsqaUBKTNV-1">
          <mxGeometry x="370" y="1400" width="120" height="50" as="geometry" />
        </mxCell>
        <mxCell id="XttCEDQT1znHBO9M0BVo-37" value="Name" style="shape=hexagon;perimeter=hexagonPerimeter2;whiteSpace=wrap;html=1;fixedSize=1;fillColor=#cdeb8b;strokeColor=#36393d;" vertex="1" parent="WIyWlLk6GJQsqaUBKTNV-1">
          <mxGeometry x="370" y="1460" width="120" height="50" as="geometry" />
        </mxCell>
        <mxCell id="XttCEDQT1znHBO9M0BVo-38" value="IP" style="shape=hexagon;perimeter=hexagonPerimeter2;whiteSpace=wrap;html=1;fixedSize=1;fillColor=#ffcc99;strokeColor=#36393d;" vertex="1" parent="WIyWlLk6GJQsqaUBKTNV-1">
          <mxGeometry x="370" y="1520" width="120" height="50" as="geometry" />
        </mxCell>
        <mxCell id="XttCEDQT1znHBO9M0BVo-39" value="Calibrated" style="shape=hexagon;perimeter=hexagonPerimeter2;whiteSpace=wrap;html=1;fixedSize=1;fillColor=#ffcc99;strokeColor=#36393d;" vertex="1" parent="WIyWlLk6GJQsqaUBKTNV-1">
          <mxGeometry x="370" y="1580" width="120" height="50" as="geometry" />
        </mxCell>
        <mxCell id="XttCEDQT1znHBO9M0BVo-40" value="Sync State" style="shape=hexagon;perimeter=hexagonPerimeter2;whiteSpace=wrap;html=1;fixedSize=1;fillColor=#ffcc99;strokeColor=#36393d;" vertex="1" parent="WIyWlLk6GJQsqaUBKTNV-1">
          <mxGeometry x="370" y="1640" width="120" height="50" as="geometry" />
        </mxCell>
        <mxCell id="XttCEDQT1znHBO9M0BVo-41" value="Hide/Show" style="shape=hexagon;perimeter=hexagonPerimeter2;whiteSpace=wrap;html=1;fixedSize=1;fillColor=#cce5ff;strokeColor=#36393d;" vertex="1" parent="WIyWlLk6GJQsqaUBKTNV-1">
          <mxGeometry x="370" y="1700" width="120" height="50" as="geometry" />
        </mxCell>
        <mxCell id="XttCEDQT1znHBO9M0BVo-42" value="Configuration" style="shape=hexagon;perimeter=hexagonPerimeter2;whiteSpace=wrap;html=1;fixedSize=1;fillColor=#cce5ff;strokeColor=#36393d;" vertex="1" parent="WIyWlLk6GJQsqaUBKTNV-1">
          <mxGeometry x="370" y="1760" width="120" height="50" as="geometry" />
        </mxCell>
        <mxCell id="XttCEDQT1znHBO9M0BVo-43" value="Client" style="rounded=1;whiteSpace=wrap;html=1;" vertex="1" parent="WIyWlLk6GJQsqaUBKTNV-1">
          <mxGeometry x="500" y="1760" width="60" height="360" as="geometry" />
        </mxCell>
        <mxCell id="XttCEDQT1znHBO9M0BVo-44" value="Depth Resolution" style="shape=hexagon;perimeter=hexagonPerimeter2;whiteSpace=wrap;html=1;fixedSize=1;fillColor=#ffcccc;strokeColor=#36393d;" vertex="1" parent="WIyWlLk6GJQsqaUBKTNV-1">
          <mxGeometry x="570" y="1760" width="120" height="50" as="geometry" />
        </mxCell>
        <mxCell id="XttCEDQT1znHBO9M0BVo-45" value="Color Resolution" style="shape=hexagon;perimeter=hexagonPerimeter2;whiteSpace=wrap;html=1;fixedSize=1;fillColor=#ffcccc;strokeColor=#36393d;" vertex="1" parent="WIyWlLk6GJQsqaUBKTNV-1">
          <mxGeometry x="570" y="1820" width="120" height="50" as="geometry" />
        </mxCell>
        <mxCell id="XttCEDQT1znHBO9M0BVo-46" value="Enable Depth Filter" style="shape=hexagon;perimeter=hexagonPerimeter2;whiteSpace=wrap;html=1;fixedSize=1;fillColor=#ffcccc;strokeColor=#36393d;" vertex="1" parent="WIyWlLk6GJQsqaUBKTNV-1">
          <mxGeometry x="570" y="1880" width="120" height="50" as="geometry" />
        </mxCell>
        <mxCell id="XttCEDQT1znHBO9M0BVo-47" value="Filter Strength" style="shape=hexagon;perimeter=hexagonPerimeter2;whiteSpace=wrap;html=1;fixedSize=1;fillColor=#ffcccc;strokeColor=#36393d;" vertex="1" parent="WIyWlLk6GJQsqaUBKTNV-1">
          <mxGeometry x="570" y="1940" width="120" height="50" as="geometry" />
        </mxCell>
        <mxCell id="XttCEDQT1znHBO9M0BVo-48" value="Apply to all" style="shape=hexagon;perimeter=hexagonPerimeter2;whiteSpace=wrap;html=1;fixedSize=1;fillColor=#cce5ff;strokeColor=#36393d;" vertex="1" parent="WIyWlLk6GJQsqaUBKTNV-1">
          <mxGeometry x="570" y="2000" width="120" height="50" as="geometry" />
        </mxCell>
        <mxCell id="XttCEDQT1znHBO9M0BVo-49" value="Apply to this" style="shape=hexagon;perimeter=hexagonPerimeter2;whiteSpace=wrap;html=1;fixedSize=1;fillColor=#cce5ff;strokeColor=#36393d;" vertex="1" parent="WIyWlLk6GJQsqaUBKTNV-1">
          <mxGeometry x="570" y="2060" width="120" height="50" as="geometry" />
        </mxCell>
      </root>
    </mxGraphModel>
  </diagram>
</mxfile>
